<?xml version="1.0" encoding="UTF-8" standalone="no"?>
<!-- Created with Inkscape (http://www.inkscape.org/) -->

<svg
   width="8.4666672mm"
   height="7.4282074mm"
   viewBox="0 0 8.4666672 7.4282074"
   version="1.1"
   id="svg5"
   sodipodi:docname="pupy.svg"
   inkscape:version="1.2.2 (b0a8486541, 2022-12-01)"
   inkscape:export-filename="pupy_2.svg"
   inkscape:export-xdpi="3.4208755"
   inkscape:export-ydpi="3.4208755"
   xmlns:inkscape="http://www.inkscape.org/namespaces/inkscape"
   xmlns:sodipodi="http://sodipodi.sourceforge.net/DTD/sodipodi-0.dtd"
   xmlns="http://www.w3.org/2000/svg"
   xmlns:svg="http://www.w3.org/2000/svg">
  <sodipodi:namedview
     id="namedview7"
     pagecolor="#ffffff"
     bordercolor="#000000"
     borderopacity="0.25"
     inkscape:showpageshadow="2"
     inkscape:pageopacity="0.0"
     inkscape:pagecheckerboard="0"
     inkscape:deskcolor="#d1d1d1"
     inkscape:document-units="mm"
     showgrid="false"
     inkscape:zoom="8.516629"
     inkscape:cx="201.48817"
     inkscape:cy="361.99769"
     inkscape:window-width="1920"
     inkscape:window-height="1011"
     inkscape:window-x="0"
     inkscape:window-y="32"
     inkscape:window-maximized="1"
     inkscape:current-layer="layer1" />
  <defs
     id="defs2" />
  <g
     inkscape:label="Layer 1"
     inkscape:groupmode="layer"
     id="layer1"
     transform="translate(-44.3257,-85.229047)">
    <path
       id="Unnamed"
       fill="none"
       stroke="#000000"
       stroke-width="0.166948"
       d="m 49.175939,85.967406 c 0,0 1.129613,-0.479749 1.129613,-0.479749 0,0 2.359884,2.137061 2.359884,2.137061 0,0 -0.659872,1.439247 -0.659872,1.439247 0,0 -0.726979,-0.697816 -0.726979,-0.697816 0,0 -0.413819,3.020237 -0.413819,3.020237 0,0 -2.371067,1.177565 -2.371067,1.177565 0,0 -2.259227,-1.133952 -2.259227,-1.133952 0,0 -0.447372,-3.183786 -0.447372,-3.183786 0,0 -0.7829,0.894077 -0.7829,0.894077 0,0 -0.559214,-1.602798 -0.559214,-1.602798 0,0 2.303964,-2.104353 2.303964,-2.104353 0,0 1.084874,0.523363 1.084874,0.523363 0,0 0.637506,-0.261681 0.637506,-0.261681 0,0 0.704609,0.272585 0.704609,0.272585 z m -0.659872,0.850463 c 0,0 -0.01119,1.362922 -0.01119,1.362922 0,0 0,1.777251 0,1.777251 0,0 -1.118428,0.51246 -1.118428,0.51246 0,0 -1.151983,0.959497 -1.151983,0.959497 m 4.630296,-0.03271 c 0,0 -1.364483,-0.93769 -1.364483,-0.93769 0,0 -0.995402,-0.501556 -0.995402,-0.501556 m 1.062507,-0.774139 c 0,0 1.252641,-0.632396 1.252641,-0.632396 0,0 -1.051323,-0.61059 -1.051323,-0.61059 0,0 -0.201318,1.242986 -0.201318,1.242986 z m -2.281586,-1.253889 c 0,0 0.201318,1.242985 0.201318,1.242985 0,0 -1.241457,-0.556071 -1.241457,-0.556071 0,0 1.040139,-0.686914 1.040139,-0.686914 z m 0.01118,-0.0109 c 0,0 -0.570397,-1.199371 -0.570397,-1.199371 0,0 1.811853,0.09813 1.811853,0.09813 0,0 -1.241456,1.101241 -1.241456,1.101241 z m 2.471728,0.02181 c 0,0 -1.25264,-1.123048 -1.25264,-1.123048 0,0 1.722381,-0.09813 1.722381,-0.09813 0,0 -0.469741,1.221178 -0.469741,1.221178 z m -1.263825,0.239874 c 0,0 0.01119,-1.362922 0.01119,-1.362922 0,0 1.263824,1.133952 1.263824,1.133952 0,0 -1.275008,0.22897 -1.275008,0.22897 z M 47.29697,87.919118 c 0,0 1.219088,0.261681 1.219088,0.261681 0,0 0.01118,-1.362922 0.01118,-1.362922 0,0 -1.230272,1.101241 -1.230272,1.101241 z m 1.219088,-1.112145 c 0,-0.08723 -0.05592,-1.112144 -0.05592,-1.112144 0,0 0.715794,0.283487 0.715794,0.283487 0,0 -0.659873,0.915885 -0.659873,0.828657 z M 47.833816,85.95651 c 0,0 0.715795,0.894078 0.693425,0.861367 -0.02237,-0.03271 -0.04474,-1.123048 -0.04474,-1.123048 0,0 -0.648689,0.261681 -0.648689,0.261681 z m -1.118428,0.763237 c 0,0 0.04474,-1.286599 0.04474,-1.286599 0,0 1.084877,0.523362 1.084877,0.523362 0,0 -1.129613,0.763237 -1.129613,0.763237 z m 2.449359,-0.730526 c 0,0 1.163165,-0.490652 1.163165,-0.490652 0,0 -0.08947,1.232082 -0.07829,1.242984 0.01118,0.0109 -1.084875,-0.752332 -1.084875,-0.752332 z m 0.615136,1.951704 c 0,0 1.107245,-0.250777 1.107245,-0.250777 0,0 -0.648689,-0.959497 -0.648689,-0.959497 0,0 -0.458556,1.210274 -0.458556,1.210274 z M 46.12262,87.701052 c 0,0 0.603953,-0.981305 0.603953,-0.981305 0,0 0.570397,1.210276 0.570397,1.210276 0,0 -1.17435,-0.228971 -1.17435,-0.228971 z m 1.17435,0.228971 c 0,0 0.190133,1.253888 0.190133,1.253888 0,0 1.028955,-1.003112 1.028955,-1.003112 0,0 -1.219088,-0.250776 -1.219088,-0.250776 z m 1.207903,0.26168 c 0,0 1.062508,1.024918 1.062508,1.024918 0,0 0.201317,-1.264792 0.201317,-1.264792 0,0 -1.263825,0.239874 -1.263825,0.239874 z m -1.028953,1.003111 c 0.01118,0 1.040138,-1.014015 1.040138,-1.014015 0,0 -0.01119,1.788155 -0.01119,1.788155 0,0 -1.040139,-0.77414 -1.028955,-0.77414 z m 1.040138,-1.003111 c 0,0.0109 -0.02237,1.777251 -0.02237,1.777251 0,0 1.073691,-0.752333 1.073691,-0.752333 0,0 -1.051323,-1.035822 -1.051323,-1.024918 z m -1.028955,1.003111 c 0,0 -1.476326,0.67601 -1.476326,0.67601 0,0 -0.223685,-1.602798 -0.223685,-1.602798 0,0 0.335528,-0.566974 0.335528,-0.566974 0,0 1.185535,0.228971 1.185535,0.228971 0,0 -1.062508,0.676009 -1.062508,0.676009 0,0 1.241456,0.588782 1.241456,0.588782 z m 2.080278,0.0109 c 0,0 1.498694,0.719624 1.498694,0.719624 0,0 0.201317,-1.58099 0.201317,-1.58099 0,0 -0.369081,-0.654204 -0.369081,-0.654204 0,0 -1.118428,0.250779 -1.118428,0.250779 0,0 1.051323,0.621493 1.051323,0.621493 0,0 -1.263825,0.643298 -1.263825,0.643298 z m 0.480925,1.079435 c 0,0 -0.525662,0.174456 -0.525662,0.174456 0,0 -1.040139,-0.47975 -1.040139,-0.47975 0,0 1.09606,-0.785043 1.09606,-0.785043 0,0 0.469741,1.090337 0.469741,1.090337 z m -3.120417,-0.04361 c 0.01119,-0.0109 0.559214,-1.057627 0.559214,-1.057627 0,0 1.01777,0.795945 1.01777,0.795945 0,0 -1.107243,0.490654 -1.107243,0.490654 0,0 -0.480926,-0.218068 -0.469741,-0.228972 z m -0.693425,1.188469 c 0.01119,-0.0109 0.693425,-1.188469 0.693425,-1.188469 0,0 0.469741,0.228972 0.469741,0.228972 0,0 -1.174351,0.970401 -1.163166,0.959497 z m 4.607925,-0.04361 c 0,0 -1.330929,-0.915884 -1.330929,-0.915884 0,0 0.548029,-0.185358 0.548029,-0.185358 0,0 0.7829,1.101242 0.7829,1.101242 z m -5.491476,-4.110574 c 0,0 -0.346713,1.87538 -0.346713,1.87538 0,0 0.7829,-0.883174 0.7829,-0.883174 0,0 0.335529,-0.566975 0.335529,-0.566975 0,0 0.603952,-0.981304 0.603952,-0.981304 0,0 -1.375668,0.556073 -1.375668,0.556073 z m -0.917111,0.250777 c 0,0 0.581582,1.657314 0.581582,1.64641 0,-0.0109 0.335529,-1.908091 0.335529,-1.908091 0,0 -0.917111,0.261681 -0.917111,0.261681 z m 2.326331,-2.104352 c 0,0 -0.03355,1.308406 -0.03355,1.308406 0,0 -1.364484,0.545169 -1.364484,0.545169 0,0 -0.917111,0.250777 -0.917111,0.250777 0,0 2.315147,-2.104352 2.315147,-2.104352 z m 3.467129,1.297502 c 0,0 1.498694,0.577878 1.498694,0.577878 0,0 0.279608,1.766348 0.279608,1.766348 0,0 -0.749347,-0.708718 -0.749347,-0.708718 0,0 -0.369081,-0.654204 -0.369081,-0.654204 0,0 -0.659874,-0.981304 -0.659874,-0.981304 z m 1.509879,0.588782 c 0,0 0.268423,1.788154 0.268423,1.755444 0,-0.03271 0.671057,-1.428343 0.671057,-1.428343 0,0 -0.93948,-0.327101 -0.93948,-0.327101 z m -1.498694,-0.577878 c 0,0 0.08947,-1.253889 0.08947,-1.242986 0,0.0109 2.359885,2.137061 2.359885,2.137061 0,0 -0.950664,-0.327101 -0.950664,-0.327101 0,0 -1.498694,-0.566974 -1.498694,-0.566974 z m -1.755934,4.470385 c 0,0 0.726979,-0.774141 0.726979,-0.774141 0,0 -0.715793,-0.468845 -0.715793,-0.468845 0,0 -0.726979,0.490654 -0.726979,0.490654 0,0 0.715793,0.752332 0.715793,0.752332 z" />
    <path
       style="fill:#ff6600;stroke-width:0.0117332"
       d="m 44.958907,88.737581 c -0.01114,-0.03227 -0.10542,-0.302969 -0.209503,-0.601562 -0.104083,-0.298593 -0.187147,-0.544599 -0.184586,-0.546681 0.0097,-0.0079 0.660557,-0.182682 0.664725,-0.178514 0.0033,0.0033 -0.118845,0.679496 -0.247095,1.367823 -0.0018,0.0097 -0.0124,-0.0088 -0.02354,-0.04107 z"
       id="path308" />
    <path
       style="fill:#ff6600;stroke-width:0.0117332"
       d="m 45.173716,88.795828 c -7.1e-5,-0.0453 0.252394,-1.433992 0.262666,-1.444796 0.01455,-0.0153 1.041645,-0.428242 1.048387,-0.421501 0.0023,0.0023 -0.108935,0.188348 -0.247273,0.413355 -0.138338,0.225007 -0.304579,0.498863 -0.369424,0.608568 -0.109923,0.18597 -0.13629,0.220503 -0.389712,0.510396 -0.313004,0.35805 -0.30462,0.348858 -0.304644,0.333978 z"
       id="path310" />
    <path
       style="fill:#ff9955;stroke-width:0.0117332"
       d="m 44.857204,87.28411 c 0.01599,-0.01533 0.279864,-0.256672 0.586395,-0.536304 0.30653,-0.279631 0.706487,-0.644773 0.888792,-0.811425 0.26269,-0.240135 0.3314,-0.297447 0.331159,-0.276222 -1.59e-4,0.01473 -0.008,0.23006 -0.0173,0.478511 -0.0093,0.248451 -0.01713,0.458329 -0.01729,0.466396 -1.59e-4,0.0081 -0.01087,0.01467 -0.02377,0.01467 -0.02628,0 -0.02808,0.0046 -0.01297,0.03304 0.0091,0.01721 -0.06609,0.05072 -0.581738,0.259143 -0.500959,0.202486 -0.63504,0.251714 -0.869958,0.319408 -0.152747,0.04402 -0.285521,0.08017 -0.295055,0.08035 -0.01187,2.21e-4 -0.0082,-0.0085 0.01173,-0.02756 z"
       id="path312" />
    <path
       style="fill:#ff9955;stroke-width:0.0117332"
       d="m 46.825423,86.369727 c 0.0025,-0.09159 0.0081,-0.306725 0.01242,-0.478083 l 0.0079,-0.311558 0.401863,0.193685 c 0.221025,0.106526 0.401786,0.196568 0.401691,0.200092 -1.41e-4,0.0053 -0.769015,0.528853 -0.814007,0.554263 -0.01116,0.0063 -0.01337,-0.02926 -0.0098,-0.158399 z"
       id="path383" />
    <path
       style="fill:#ff9955;stroke-width:0.0117332"
       d="m 51.973142,87.283678 c -0.218207,-0.07594 -0.576128,-0.210602 -1.376475,-0.517897 -0.226144,-0.08683 -0.238,-0.09291 -0.231507,-0.118782 0.0038,-0.01517 0.0015,-0.02727 -0.0051,-0.02727 -0.0066,0 -0.01196,-0.02508 -0.01197,-0.05573 -3.5e-5,-0.09649 0.04731,-0.793429 0.05613,-0.826363 0.0081,-0.0304 0.01834,-0.02243 0.30819,0.240531 0.164875,0.149582 0.578136,0.524086 0.918357,0.83223 0.340222,0.308144 0.61188,0.559983 0.603686,0.559643 -0.0082,-3.41e-4 -0.125778,-0.0392 -0.261297,-0.08636 z"
       id="path385" />
    <path
       style="fill:#ff6600;stroke-width:0.0117332"
       d="m 50.078225,86.514264 c -0.03549,-0.02523 -0.209731,-0.146731 -0.387196,-0.269995 -0.177465,-0.123263 -0.323989,-0.227822 -0.325607,-0.232352 -0.0032,-0.0089 0.851671,-0.372504 0.857776,-0.364827 0.002,0.0026 -0.01094,0.202649 -0.02883,0.444647 -0.01789,0.241998 -0.03286,0.446596 -0.03327,0.454663 -0.0011,0.02224 -0.01269,0.01776 -0.08287,-0.03214 z"
       id="path387" />
    <path
       style="fill:#ff6600;stroke-width:0.0117332"
       d="m 51.945845,88.090828 c -0.05333,-0.352488 -0.0954,-0.642162 -0.0935,-0.64372 0.0085,-0.0069 0.678124,0.234388 0.678124,0.24436 0,0.0061 -0.08523,0.196508 -0.189394,0.42304 -0.104166,0.226531 -0.210597,0.458074 -0.236513,0.514541 -0.02592,0.05647 -0.05041,0.102665 -0.05444,0.102665 -0.004,0 -0.05095,-0.288399 -0.10428,-0.640886 z"
       id="path389" />
    <path
       style="fill:#ff9955;stroke-width:0.0117332"
       d="m 51.609552,88.557986 -0.255575,-0.244588 -0.197873,-0.351104 c -0.108831,-0.193107 -0.204822,-0.356383 -0.213313,-0.362836 -0.02181,-0.01657 -0.457446,-0.663296 -0.451086,-0.669656 0.0046,-0.0046 0.390224,0.13946 0.977456,0.364996 l 0.176546,0.0678 0.113207,0.716489 c 0.06226,0.394069 0.111633,0.718063 0.10971,0.719986 -0.0019,0.0019 -0.118506,-0.106568 -0.259072,-0.241092 z"
       id="path391" />
    <path
       style="fill:#ff9955;stroke-width:0.0117332"
       d="m 49.766651,86.288269 c -0.205426,-0.143586 -0.373085,-0.266345 -0.372574,-0.272798 0.0014,-0.01763 0.807796,-0.367192 0.819673,-0.355315 0.0025,0.0025 -0.0031,0.112478 -0.01243,0.244443 -0.0093,0.131966 -0.02327,0.331017 -0.03101,0.442336 -0.0077,0.111319 -0.01769,0.202398 -0.02211,0.202398 -0.0044,0 -0.176117,-0.117479 -0.381543,-0.261064 z"
       id="path462" />
    <path
       style="fill:#ff9955;stroke-width:0.0117332"
       d="m 49.928525,86.392344 c -0.299849,-0.206346 -0.512589,-0.363045 -0.511657,-0.376873 4.35e-4,-0.0065 0.08738,-0.05032 0.193209,-0.09749 0.105829,-0.04717 0.194188,-0.09076 0.196353,-0.09687 0.0022,-0.0061 0.0084,-0.0084 0.01379,-0.005 0.01279,0.0079 0.07028,-0.01825 0.07028,-0.03198 0,-0.0058 0.0045,-0.0077 0.0101,-0.0043 0.0056,0.0034 0.07468,-0.02041 0.15361,-0.05298 0.07893,-0.03258 0.145207,-0.05751 0.147285,-0.05542 0.0067,0.0068 0.0089,0.120559 0.0027,0.138744 -0.0065,0.01898 -0.04658,0.61158 -0.04256,0.628968 0.0013,0.0058 -7.93e-4,0.01841 -0.0047,0.02809 -0.0039,0.0097 -0.0087,0.02997 -0.01066,0.04509 -0.0032,0.02531 -0.02044,0.01584 -0.217742,-0.119942 z"
       id="path464" />
    <path
       style="fill:#ff6600;stroke-width:0.0117332"
       d="m 51.607256,88.545859 -0.245584,-0.233803 -0.189396,-0.333183 c -0.104168,-0.18325 -0.219664,-0.375265 -0.256657,-0.426698 -0.145302,-0.202024 -0.404239,-0.59772 -0.393483,-0.601306 0.01004,-0.0033 0.199073,0.06645 0.917144,0.338644 0.106479,0.04036 0.19535,0.07468 0.19749,0.07627 0.0082,0.0061 0.225642,1.403958 0.219389,1.41044 -0.0018,0.0019 -0.113833,-0.101771 -0.248903,-0.230364 z"
       id="path466" />
    <path
       style="fill:#ff7f2a;stroke-width:0.0117332"
       d="m 48.203169,86.271769 c -0.111688,-0.138608 -0.20557,-0.258529 -0.208625,-0.26649 -0.0036,-0.0095 0.06076,-0.04096 0.187177,-0.09145 l 0.192732,-0.07698 0.007,0.08345 c 0.01106,0.132353 0.03334,0.5951 0.02887,0.599503 -0.0022,0.0022 -0.09544,-0.109417 -0.207124,-0.248026 z"
       id="path539" />
    <path
       style="fill:#ff7f2a;stroke-width:0.0117332"
       d="m 48.595414,86.481867 c -0.0133,-0.197529 -0.02183,-0.636528 -0.01236,-0.636528 0.0256,0 0.439177,0.169505 0.439177,0.179998 0,0.01151 -0.407249,0.559196 -0.415807,0.559196 -0.0023,0 -0.0072,-0.0462 -0.01101,-0.102666 z"
       id="path541" />
    <path
       style="fill:#ffb380;stroke-width:0.0117332"
       d="m 47.587309,86.678283 c -0.314893,-0.01774 -0.575023,-0.03474 -0.578068,-0.03778 -0.003,-0.003 0.177749,-0.129517 0.401761,-0.281049 l 0.407296,-0.275515 0.241747,0.300165 c 0.132961,0.16509 0.24576,0.306764 0.250664,0.314831 0.01193,0.01962 -0.02931,0.01844 -0.7234,-0.02065 z"
       id="path612" />
    <path
       style="fill:#ffb380;stroke-width:0.0117332"
       d="m 48.758809,86.687767 c 0.01259,-0.01629 0.114606,-0.151612 0.226698,-0.300704 l 0.203803,-0.271076 0.101261,0.07087 c 0.05569,0.03898 0.224264,0.156229 0.374603,0.260552 0.207904,0.144268 0.268296,0.191556 0.252264,0.197524 -0.01159,0.0043 -0.232276,0.01909 -0.490407,0.03282 -0.258131,0.01374 -0.519231,0.02827 -0.580223,0.0323 l -0.110893,0.0073 z"
       id="path614" />
    <path
       style="fill:#ffe680;stroke-width:0.0117332"
       d="m 47.10099,87.296554 c -0.12313,-0.259319 -0.222206,-0.473181 -0.220169,-0.475247 0.0031,-0.0032 1.297516,0.06321 1.392919,0.07142 0.02775,0.0024 -0.0254,0.05387 -0.420775,0.40753 -0.248898,0.222638 -0.469543,0.418969 -0.490322,0.436291 l -0.03778,0.03149 z"
       id="path754" />
    <path
       style="fill:#ffe680;stroke-width:0.0117332"
       d="m 49.229563,87.337462 c -0.393698,-0.354553 -0.485391,-0.442519 -0.463463,-0.444627 0.09004,-0.0087 1.326588,-0.07482 1.330234,-0.07117 0.0061,0.0061 -0.361618,0.959894 -0.369594,0.958729 -0.0035,-5.12e-4 -0.227238,-0.199831 -0.497177,-0.442929 z"
       id="path756" />
    <path
       style="fill:#ff9955;stroke-width:0.0117332"
       d="M 48.611571,87.550383 V 87.02831 l 0.03255,0.02744 c 0.112389,0.09476 0.92963,0.835026 0.925932,0.838724 -0.0025,0.0025 -0.20993,0.04132 -0.460973,0.08628 -0.251043,0.04496 -0.465682,0.08399 -0.476976,0.08673 -0.01932,0.0047 -0.02053,-0.02582 -0.02053,-0.517102 z"
       id="path758" />
    <path
       style="fill:#ff9955;stroke-width:0.0117332"
       d="m 47.948644,87.96818 c -0.232318,-0.05061 -0.430317,-0.09365 -0.439997,-0.09564 -0.01017,-0.0021 0.17804,-0.177309 0.445863,-0.415098 l 0.463463,-0.411489 0.0037,0.329549 c 0.002,0.181252 1.41e-4,0.410069 -0.0042,0.508481 -0.0068,0.155854 -0.01033,0.178757 -0.02714,0.177575 -0.01061,-7.45e-4 -0.209376,-0.04277 -0.441694,-0.09338 z"
       id="path760" />
    <path
       style="fill:#ff9955;stroke-width:0.0117332"
       d="m 46.945452,87.769872 c -0.08712,-0.01792 -0.275158,-0.0549 -0.417864,-0.08218 l -0.259465,-0.0496 0.223178,-0.362621 c 0.122748,-0.199441 0.224611,-0.361188 0.226362,-0.359438 0.0051,0.0051 0.415521,0.877845 0.415521,0.883577 0,0.008 -0.01802,0.0052 -0.187732,-0.02973 z"
       id="path762" />
    <path
       style="fill:#ff9955;stroke-width:0.0117332"
       d="m 49.9306,87.797343 c 0.0047,-0.01204 0.0774,-0.204046 0.161659,-0.426683 0.08426,-0.222639 0.157131,-0.412159 0.161932,-0.421158 0.0059,-0.0111 0.08346,0.0955 0.241068,0.331397 0.127787,0.191267 0.230109,0.349648 0.227383,0.351959 -0.0027,0.0023 -0.173914,0.04216 -0.380419,0.08856 -0.206505,0.0464 -0.385502,0.08739 -0.397771,0.09108 -0.01801,0.0054 -0.02068,0.0025 -0.01385,-0.01516 z"
       id="path764" />
    <path
       style="fill:#241c1c;stroke-width:0.0117332"
       d="m 47.074518,88.889554 c -0.151652,-0.06786 -0.35638,-0.160944 -0.45495,-0.206864 l -0.179219,-0.08349 0.161619,-0.10771 c 0.233426,-0.155565 0.613972,-0.39679 0.618061,-0.391784 0.0019,0.0024 0.0336,0.19172 0.07039,0.420811 0.03679,0.229092 0.06985,0.43369 0.07347,0.454663 0.0036,0.02097 0.002,0.03805 -0.0035,0.03794 -0.0056,-1.06e-4 -0.134184,-0.05571 -0.285836,-0.123566 z"
       id="path835" />
    <path
       style="fill:#241c1c;stroke-width:0.0117332"
       d="m 49.698555,88.963446 c 0.0043,-0.02743 0.03751,-0.236063 0.07382,-0.463636 l 0.06601,-0.413769 0.37512,0.218235 c 0.206317,0.120029 0.381999,0.224852 0.390405,0.23294 0.01236,0.01189 -0.07207,0.05882 -0.441568,0.245401 -0.251269,0.126882 -0.460167,0.230695 -0.464219,0.230695 -0.0041,0 -0.0039,-0.02244 4.36e-4,-0.04987 z"
       id="path837" />
    <path
       style="fill:#ffe680;stroke-width:0.0117332"
       d="m 47.477186,88.521868 c -0.03963,-0.262101 -0.0712,-0.476877 -0.07016,-0.477279 10e-4,-4.03e-4 0.209335,0.04205 0.462878,0.09434 l 0.460988,0.09507 -0.390826,0.382212 -0.390827,0.382213 z"
       id="path839" />
    <path
       style="fill:#ffe680;stroke-width:0.0117332"
       d="m 49.101614,88.633326 -0.395816,-0.388865 0.472082,-0.08939 c 0.259645,-0.04917 0.473605,-0.08805 0.475466,-0.08641 0.0036,0.0032 -0.148317,0.947143 -0.153088,0.951156 -0.0016,0.0013 -0.180945,-0.172611 -0.398644,-0.386487 z"
       id="path841" />
    <path
       style="fill:#ff9955;stroke-width:0.0117332"
       d="m 48.112215,89.557431 c -0.399694,-0.310958 -0.440637,-0.344736 -0.432945,-0.357181 0.0038,-0.0061 -0.0014,-0.01427 -0.01148,-0.01814 -0.01009,-0.0039 -0.01834,-0.01101 -0.01834,-0.01585 0,-0.0048 0.171599,-0.176427 0.38133,-0.381291 l 0.38133,-0.372478 v 0.681743 c 0,0.374959 -0.0043,0.681744 -0.0095,0.681744 -0.0052,0 -0.135901,-0.09834 -0.290398,-0.218541 z"
       id="path843" />
    <path
       style="fill:#ff9955;stroke-width:0.0117332"
       d="m 48.599838,89.093783 v -0.684145 l 0.08507,0.08256 c 0.04679,0.04541 0.226335,0.218939 0.398998,0.385619 0.227772,0.219879 0.310722,0.306924 0.302233,0.317152 -0.0064,0.0078 -0.0089,0.01691 -0.0055,0.02034 0.0053,0.0053 -0.742936,0.547462 -0.771058,0.558701 -0.0054,0.0022 -0.0098,-0.303954 -0.0098,-0.680233 z"
       id="path845" />
    <path
       style="fill:#ffeeaa;stroke-width:0.0117332"
       d="m 46.083526,89.703306 c -0.01066,-0.04668 -0.194065,-1.371284 -0.194065,-1.40161 0,-0.03907 0.270546,-0.496579 0.293331,-0.496041 0.0097,2.28e-4 0.210131,0.03846 0.445447,0.08495 l 0.427847,0.08454 -0.292915,0.190366 c -0.161103,0.104702 -0.382248,0.247211 -0.491433,0.316687 -0.109185,0.06948 -0.200461,0.132192 -0.202836,0.139367 -0.0024,0.0073 0.108267,0.06344 0.251318,0.127461 0.140599,0.06293 0.412436,0.188595 0.604081,0.279262 l 0.348445,0.164848 -0.571377,0.262168 c -0.314257,0.144193 -0.58044,0.265071 -0.591519,0.26862 -0.01422,0.0046 -0.02196,-0.0015 -0.02632,-0.02062 z"
       id="path847" />
    <path
       style="fill:#ffeeaa;stroke-width:0.0117332"
       d="m 50.379957,89.495547 -0.607594,-0.292279 0.431595,-0.219554 c 0.237378,-0.120754 0.514894,-0.262077 0.616703,-0.31405 0.101808,-0.05197 0.183251,-0.100194 0.180983,-0.107156 -0.0023,-0.007 -0.154206,-0.100024 -0.337639,-0.206805 -0.567411,-0.330301 -0.63808,-0.373608 -0.620282,-0.380121 0.01345,-0.0049 0.315438,-0.07319 0.751151,-0.169817 l 0.04199,-0.0093 0.167292,0.296878 0.167291,0.296878 -0.08353,0.660615 c -0.04594,0.363338 -0.08732,0.677801 -0.09195,0.698807 l -0.0084,0.03819 z"
       id="path849" />
    <path
       style="fill:#fff6d5;stroke-width:0.0117332"
       d="m 46.28335,91.124047 c -0.01886,-0.08364 -0.169249,-1.201897 -0.161982,-1.204503 0.0047,-0.0017 0.261638,-0.119165 0.570876,-0.261031 0.309238,-0.141865 0.564664,-0.255524 0.567613,-0.252574 0.01182,0.01182 -0.398533,0.770551 -0.660819,1.221842 -0.332728,0.572492 -0.307456,0.532764 -0.315688,0.496266 z"
       id="path920" />
    <path
       style="fill:#fff6d5;stroke-width:0.0117332"
       d="m 50.45525,90.685307 -0.344553,-0.484979 -0.168599,-0.390301 c -0.09273,-0.214666 -0.16632,-0.39258 -0.163535,-0.395365 0.0028,-0.0028 0.271698,0.123038 0.597583,0.279606 0.576948,0.27719 0.592375,0.285472 0.587091,0.315186 -0.003,0.01678 -0.03992,0.283779 -0.08208,0.593322 -0.04216,0.309544 -0.07771,0.563865 -0.079,0.565159 -0.0013,0.0013 -0.157401,-0.215889 -0.346906,-0.482628 z"
       id="path922" />
    <path
       style="fill:#ff7f2a;stroke-width:0.0117332"
       d="m 47.213037,90.280132 -0.160678,-0.08127 0.05017,-0.09118 c 0.02759,-0.05015 0.124908,-0.233954 0.216259,-0.408457 0.09135,-0.174504 0.172935,-0.32664 0.181301,-0.33808 0.01387,-0.01897 0.04774,0.0037 0.384322,0.257027 0.203013,0.152805 0.382622,0.289194 0.399132,0.303086 l 0.03002,0.02526 -0.454821,0.208059 c -0.250151,0.114433 -0.461616,0.207783 -0.469921,0.207445 -0.0083,-3.37e-4 -0.08741,-0.03719 -0.175779,-0.08189 z"
       id="path924" />
    <path
       style="fill:#ff7f2a;stroke-width:0.0117332"
       d="m 49.101095,90.154369 -0.418589,-0.208265 0.318867,-0.222931 c 0.175377,-0.122613 0.369386,-0.25804 0.431132,-0.30095 l 0.112265,-0.07802 0.187528,0.43476 c 0.103141,0.239117 0.189113,0.438697 0.19105,0.44351 0.0028,0.0071 -0.374359,0.140159 -0.397201,0.140159 -0.0036,0 -0.194828,-0.09372 -0.425052,-0.208265 z"
       id="path926" />
    <path
       style="fill:#ff7f2a;stroke-width:0.0117332"
       d="m 50.075791,90.746141 -0.360297,-0.248575 0.148755,-0.04987 c 0.08182,-0.02743 0.152223,-0.04987 0.15646,-0.04987 0.0042,0 0.08183,0.104279 0.17243,0.231732 0.0906,0.127452 0.186576,0.262091 0.213283,0.299197 0.02671,0.03711 0.04431,0.06713 0.03911,0.06671 -0.0052,-4.15e-4 -0.171579,-0.112614 -0.369743,-0.249331 z"
       id="path930" />
    <path
       style="fill:#ff7f2a;stroke-width:0.0117332"
       d="m 46.59448,91.000707 c 0.0027,-0.0072 0.08608,-0.15298 0.185364,-0.323918 l 0.180522,-0.310797 0.127358,0.05992 c 0.07005,0.03296 0.126091,0.06326 0.124542,0.06735 -0.0023,0.006 -0.516446,0.436768 -0.600326,0.502965 -0.01226,0.0097 -0.02012,0.0117 -0.01746,0.0045 z"
       id="path932" />
    <path
       style="fill:#241c1c;stroke-width:0.0117332"
       d="m 48.236108,90.812493 c -0.132292,-0.138999 -0.259787,-0.274844 -0.283322,-0.301877 l -0.04279,-0.04915 0.238444,-0.160881 c 0.131145,-0.08848 0.242894,-0.160881 0.248332,-0.160881 0.0054,0 0.02827,-0.01239 0.05074,-0.02754 0.04227,-0.0285 0.06221,-0.02837 0.09556,6.29e-4 0.01073,0.0093 0.02729,0.0181 0.0368,0.0195 0.02523,0.0037 0.477556,0.301013 0.477556,0.313894 0,0.01019 -0.56035,0.611966 -0.574355,0.616814 -0.0035,0.0012 -0.114679,-0.111498 -0.246971,-0.250497 z"
       id="path934" />
    <path
       style="fill:#000000;stroke-width:0.0176648"
       d="m 48.398539,91.219454 0.007,0.233977 -0.328289,0.107587 -0.181184,-0.04922 -0.245946,-0.218567 -0.0091,0.162002 0.189821,0.173779 0.240286,0.0233 0.344587,-0.09709 0.214671,0.05718 0.110191,0.0186 0.24907,-0.03614 0.197465,-0.06159 0.0074,-0.140413 -0.220259,0.102229 -0.284258,0.01783 -0.13553,-0.05756 -0.0011,-0.08989 0.01755,-0.156308 z"
       id="path1043" />
  </g>
</svg>
