<?xml version="1.0" standalone="no"?>
<!DOCTYPE svg PUBLIC "-//W3C//DTD SVG 20010904//EN"
 "http://www.w3.org/TR/2001/REC-SVG-20010904/DTD/svg10.dtd">
<svg version="1.0" xmlns="http://www.w3.org/2000/svg"
 width="512.000000pt" height="512.000000pt" viewBox="0 0 512.000000 512.000000"
 preserveAspectRatio="xMidYMid meet">
<metadata>
Created by potrace 1.16, written by Peter Selinger 2001-2019
</metadata>
<g transform="translate(0.000000,512.000000) scale(0.100000,-0.100000)"
fill="#000000" stroke="none">
<path d="M2065 2945 c-49 -20 -117 -46 -150 -60 l-60 -25 -33 -148 c-18 -81
-32 -158 -32 -172 0 -42 -11 -74 -21 -58 -5 7 -9 8 -9 2 0 -5 6 -18 13 -28 12
-16 21 -7 92 84 118 150 312 442 293 440 -2 -1 -43 -16 -93 -35z"/>
<path d="M1775 2834 l-40 -13 40 5 c42 6 85 24 55 23 -8 0 -33 -7 -55 -15z"/>
<path d="M1813 2805 c0 -8 4 -12 9 -9 5 3 6 10 3 15 -9 13 -12 11 -12 -6z"/>
<path d="M2187 2631 c-54 -37 -103 -73 -109 -79 -8 -8 24 -27 117 -72 70 -34
129 -60 131 -57 4 3 -35 269 -40 273 0 1 -45 -28 -99 -65z"/>
<path d="M2846 2673 c-11 -37 -47 -245 -43 -249 2 -2 66 26 142 62 l137 66
-48 27 c-27 15 -74 43 -104 62 -30 19 -60 38 -67 42 -7 4 -14 0 -17 -10z"/>
<path d="M2500 2205 c-75 -40 -104 -68 -95 -94 3 -12 40 -57 80 -101 60 -63
75 -75 80 -61 3 10 28 38 56 61 50 42 89 93 89 117 0 12 -137 103 -154 103 -6
-1 -31 -12 -56 -25z"/>
<path d="M2545 1902 c-31 -6 -195 -84 -195 -94 0 -18 50 -6 125 30 l79 38 65
-33 c68 -33 151 -53 151 -36 0 11 -16 19 -130 67 -41 18 -84 30 -95 28z"/>
</g>
</svg>
